<?xml version="1.0" encoding="UTF-8"?>
<svg xmlns:xodm="http://www.corel.com/coreldraw/odm/2003" xmlns="http://www.w3.org/2000/svg" xmlns:xlink="http://www.w3.org/1999/xlink" version="1.1" id="Layer_1" x="0px" y="0px" viewBox="0 0 2500 737" style="enable-background:new 0 0 2500 737;" xml:space="preserve">
<style type="text/css">
	.st0{fill:#00003E;}
	.st1{fill:#0173E5;}
	.st2{fill-rule:evenodd;clip-rule:evenodd;fill:#1C242C;}
</style>
<g id="Layer_x0020_1">
	<g id="_2500408798400">
		<path class="st0" d="M147.2,578.6c1.9-175.5,188.5-212.6,167.6-404.4c-6-55.2-32.7-120.7-86.7-173c-2.8-2.7-7.5-0.5-7.2,3.5    c16.3,176.2-108,259.7-163.8,333.1C-66.9,500.6,24.2,709.3,207.8,736.9c4.1,0.6,6.6-4.3,3.6-7.2    C173.8,692.4,147.2,644.9,147.2,578.6L147.2,578.6L147.2,578.6z"></path>
		<path class="st1" d="M387.5,297.7c-2.5-2.1-6.3-0.8-6.9,2.4c-4.5,22.8-18.6,60.3-64.1,126.2c-117.7,170.6-60.8,246.3-9.4,303.4    c11.3,13.5,5.7-3,29.8-19.7c32.4-22.4,46.1-25.2,76.8-52.5c35-35.1,63.4-90.2,66.1-146.1C485.7,389.8,414.2,320.4,387.5,297.7    L387.5,297.7z"></path>
		<path class="st2" d="M918.1,367.3V152.8h69.5c14.8,0,26.8,12.3,26.8,27.6v511.1H945c-14.8,0-26.9-12.4-26.9-27.6V453.8H712.2    v237.7h-69.5c-14.8,0-26.9-12.4-26.9-27.6v-511h69.5c14.8,0,26.9,12.3,26.9,27.6v186.9H918.1L918.1,367.3z M1330.4,535.2V279.6    l0,0h71.2c15.1,0,27.4,12.4,27.4,27.6v232.4c0,83.7-67.9,152.1-150.9,152.1h-40.4c-83,0-150.9-68.5-150.9-152.1v-260h0h71.2    c15.1,0,27.4,12.4,27.4,27.6v223.3c0,53.4,57.6,93.9,113.3,61.5C1318.7,580.4,1330.4,558.4,1330.4,535.2L1330.4,535.2z     M2424.2,691.4h69.7V329c0-15.3-12.1-27.7-26.9-27.7h-69.7v362.4C2397.3,679.1,2409.3,691.4,2424.2,691.4z M2499.9,206.5    c0,29.7-24.1,53.7-53.7,53.7c-29.7,0-53.7-24.1-53.7-53.7s24.1-53.7,53.7-53.7C2475.9,152.8,2499.9,176.9,2499.9,206.5z     M1775.1,520.6c0,49.1-39.6,81.8-88,81.8c-48.4,0-88-32.7-88-81.8v-70.1c0-49.1,39.6-81.8,88-81.8c48.4,0,88,32.7,88,81.8V520.6z     M1687.1,279.6c-102.3,0-186,74.3-186,178.1v56.1c0,103.8,83.7,177.6,186,177.6c102.3,0,186-73.8,186-177.6v-56.1    C1873.1,353.9,1789.4,279.6,1687.1,279.6L1687.1,279.6z M2132.8,602.4c48.7,0,88.5-32.7,88.5-81.7v-70c0-49.1-39.8-81.7-88.5-81.7    c-48.7,0-88.5,32.7-88.5,81.7v70C2044.2,569.8,2084.1,602.4,2132.8,602.4z M2043.7,300.3c26.5-13.1,56.9-20.4,89-20.4    c102.9,0,187.2,74.2,187.2,177.9v56.1c0,103.7-84.2,177.5-187.2,177.5c-102.9,0-187.2-73.8-187.2-177.5V152.8h70.8    c15.1,0,27.4,12.3,27.4,27.5V300.3L2043.7,300.3z"></path>
	</g>
</g>
</svg>
